<?xml version="1.0" standalone="no"?>
<!DOCTYPE svg PUBLIC "-//W3C//DTD SVG 20010904//EN"
 "http://www.w3.org/TR/2001/REC-SVG-20010904/DTD/svg10.dtd">
<svg version="1.0" xmlns="http://www.w3.org/2000/svg"
 width="1900.000000pt" height="1080.000000pt" viewBox="0 0 1900.000000 1080.000000"
 preserveAspectRatio="xMidYMid meet">
<metadata>
Created by potrace 1.16, written by Peter Selinger 2001-2019
</metadata>
<g transform="translate(0.000000,1080.000000) scale(0.100000,-0.100000)"
fill="#000000" stroke="none">
<path d="M8865 10520 c-172 -10 -364 -33 -510 -61 l-110 -21 -35 -45 c-44 -56
-145 -143 -230 -198 -107 -70 -218 -121 -590 -272 -430 -175 -639 -255 -745
-283 l-79 -21 -121 -122 c-122 -124 -237 -221 -357 -304 -59 -40 -69 -44 -84
-32 -14 11 -18 11 -29 -4 -7 -10 -11 -26 -8 -36 8 -32 -14 -57 -135 -154 -64
-51 -130 -112 -146 -135 -28 -41 -48 -132 -29 -132 5 0 23 19 40 43 73 100
143 156 143 113 0 -29 -86 -140 -215 -276 -74 -79 -155 -172 -179 -209 -48
-73 -90 -173 -101 -239 -5 -33 -18 -54 -59 -95 -53 -53 -76 -99 -140 -279 -43
-121 -98 -192 -165 -213 -22 -7 -23 -6 -16 36 20 133 76 245 218 442 90 123
130 194 151 266 28 95 15 194 -13 108 -18 -53 -101 -173 -208 -297 -159 -187
-203 -255 -203 -315 0 -35 14 -31 28 9 7 19 19 40 28 47 12 10 11 1 -5 -41
-27 -72 -73 -138 -165 -240 -43 -47 -94 -109 -113 -137 -20 -29 -37 -53 -38
-53 -4 0 11 61 20 83 4 10 27 53 51 95 37 64 44 85 44 129 l0 53 -42 -21 c-70
-35 -114 -76 -162 -147 -58 -87 -92 -177 -155 -402 -55 -194 -87 -284 -127
-353 l-24 -42 5 70 c21 245 64 398 223 776 82 196 162 421 162 456 0 7 -7 13
-15 13 -35 0 -74 -32 -114 -94 -51 -77 -65 -90 -88 -81 -17 6 -17 7 -1 16 29
16 71 96 64 123 -7 29 -33 41 -53 24 -8 -7 -39 -62 -67 -123 -29 -60 -60 -116
-68 -123 -14 -11 -18 -8 -28 24 -21 62 -8 123 55 255 45 93 60 136 63 178 4
61 -11 115 -31 109 -6 -3 -30 -45 -52 -95 -46 -104 -87 -172 -93 -154 -2 6 12
46 32 87 41 87 44 109 17 124 -46 24 -54 15 -89 -98 -19 -59 -68 -181 -109
-272 -130 -284 -168 -408 -179 -590 -6 -92 -10 -110 -34 -145 -84 -123 -169
-338 -215 -545 -60 -263 -86 -512 -115 -1090 -12 -222 -22 -405 -23 -407 -9
-8 -39 247 -35 297 2 33 0 60 -5 60 -20 0 -68 -65 -82 -113 -20 -66 -19 -222
1 -413 15 -151 37 -243 147 -644 30 -107 58 -210 61 -228 l8 -32 -321 0 -321
0 0 -1290 0 -1290 360 0 360 0 0 327 0 326 58 -91 c130 -208 300 -349 537
-447 167 -70 405 -115 601 -115 l94 0 0 180 c0 99 2 180 4 180 3 0 98 -74 212
-165 129 -103 213 -164 223 -161 9 2 31 7 49 11 30 6 32 5 32 -20 0 -14 -5
-35 -11 -47 -9 -16 -7 -24 12 -44 31 -34 43 -30 65 18 16 36 24 43 52 46 l32
3 0 -53 c0 -30 -7 -68 -18 -88 l-17 -35 47 -89 c26 -50 60 -102 75 -118 43
-45 155 -118 329 -216 88 -49 248 -146 355 -214 257 -165 301 -191 411 -243
156 -74 229 -90 403 -90 173 0 261 19 403 85 81 38 85 39 190 38 169 -2 300
42 439 148 219 168 355 443 370 751 l6 123 429 0 428 0 0 1014 0 1014 65 -26
65 -25 0 -64 0 -63 110 0 110 0 0 -925 0 -925 360 0 360 0 0 925 0 924 280 1
281 0 -3 -508 -3 -507 -23 -33 c-45 -62 -88 -76 -259 -80 l-153 -4 -1 -107
c-1 -58 -1 -212 1 -342 2 -225 1 -237 -20 -278 -12 -24 -19 -45 -16 -48 3 -3
30 9 61 26 49 28 64 32 115 29 l59 -3 -150 -99 c-82 -55 -149 -105 -149 -112
0 -8 -6 -11 -13 -8 -16 6 -157 -73 -157 -87 0 -6 15 -8 33 -5 17 3 61 8 97 11
271 26 505 124 880 372 162 107 197 126 165 93 -105 -110 -259 -217 -590 -410
-294 -171 -421 -257 -532 -362 -72 -67 -115 -99 -167 -123 -39 -18 -108 -50
-153 -70 -98 -45 -107 -65 -30 -65 104 0 274 58 493 168 104 52 215 95 274
106 53 9 19 -9 -72 -40 -54 -18 -85 -34 -103 -55 -43 -51 -34 -60 38 -39 147
42 233 82 472 218 151 86 244 132 345 172 l55 22 -25 -27 c-40 -44 -126 -97
-275 -173 -165 -84 -253 -138 -283 -177 -24 -30 -38 -72 -29 -82 10 -9 469
265 787 471 126 81 269 180 390 270 8 6 2 -4 -13 -22 -32 -40 -35 -72 -7 -90
18 -11 29 -4 108 67 70 63 96 80 130 86 23 4 42 5 42 2 0 -2 -42 -40 -92 -83
-184 -156 -266 -244 -228 -244 25 0 79 30 123 69 27 22 54 41 61 41 31 0 20
-16 -42 -58 -66 -45 -183 -137 -337 -267 -139 -117 -243 -186 -404 -269 -86
-45 -214 -120 -286 -166 -71 -46 -170 -101 -220 -122 -156 -67 -216 -100 -228
-126 -10 -21 -8 -27 16 -48 l27 -23 -67 -20 c-38 -11 -128 -36 -202 -56 -121
-32 -252 -79 -291 -105 -24 -15 152 -12 257 5 130 21 336 76 486 129 71 25
168 52 215 61 48 9 116 29 152 44 91 38 322 168 467 263 l122 80 87 8 c85 7
89 9 122 46 18 22 52 68 75 104 41 64 44 66 172 130 168 84 178 91 211 155 24
46 35 56 81 75 94 39 175 100 315 238 76 75 138 139 138 144 0 4 -7 8 -15 8
-14 0 -14 3 0 30 8 16 15 38 15 48 0 11 40 53 100 106 79 70 188 183 250 259
4 4 17 -23 29 -60 61 -187 177 -312 347 -375 53 -19 84 -22 297 -26 l237 -4 0
360 0 359 -65 7 c-82 8 -112 22 -133 60 -15 27 -17 81 -20 456 l-2 425 40 85
39 85 71 3 70 3 0 303 c0 347 -1 336 95 773 36 161 65 302 65 315 l0 21 -23
-21 c-69 -65 -243 -77 -392 -26 -26 8 -49 13 -53 10 -8 -8 38 -55 70 -72 34
-18 207 -60 285 -70 50 -6 54 -8 33 -16 -40 -15 -120 -1 -270 47 -77 25 -152
45 -165 45 -73 0 25 -68 165 -115 115 -38 161 -64 192 -106 64 -86 32 -231
-69 -318 l-48 -41 -202 0 -201 0 -16 42 c-12 34 -56 214 -56 232 0 2 -7 7 -16
10 -15 6 -16 -7 -10 -139 7 -123 5 -145 -7 -145 -17 0 -27 85 -27 233 0 74 -3
97 -13 97 -16 0 -32 -65 -47 -195 -18 -146 -11 -135 -85 -135 l-65 0 0 75 0
75 -226 0 -227 0 6 51 c13 110 90 185 247 239 47 16 86 34 88 40 6 18 -72 11
-111 -10 -20 -11 -55 -20 -77 -20 -26 0 -61 -12 -104 -36 -36 -19 -73 -34 -83
-31 -11 2 51 37 155 87 94 46 172 87 172 92 0 17 -108 7 -183 -17 -43 -14 -96
-25 -117 -25 -39 0 -40 -1 -40 -33 0 -39 -28 -69 -80 -86 -33 -10 -35 -14 -35
-54 -1 -71 -47 -150 -150 -255 l-92 -92 -170 0 -171 0 48 148 c114 346 171
652 186 987 7 158 -1 355 -15 355 -3 0 -16 -19 -28 -42 -19 -38 -23 -64 -27
-218 -9 -330 -80 -722 -182 -1015 -46 -133 -49 -147 -30 -184 l17 -31 -176 0
-175 0 0 -290 c0 -211 -3 -296 -12 -310 -10 -15 -10 -26 0 -53 7 -18 12 -43
12 -55 0 -21 5 -22 79 -22 l78 0 12 -60 c8 -40 17 -60 27 -60 7 0 14 -8 14
-17 0 -15 -10 -18 -51 -20 -74 -3 -143 -45 -201 -121 -74 -98 -77 -173 -8
-242 44 -44 113 -69 201 -73 l56 -2 1 -218 c2 -274 -1 -282 -120 -302 -35 -5
-38 -4 -38 19 0 22 21 132 50 264 7 29 9 56 6 59 -21 22 -86 -100 -110 -208
-21 -92 -82 -309 -90 -316 -16 -17 -2 126 20 200 4 12 0 17 -16 17 -21 0 -20
3 13 39 20 22 41 59 47 83 7 24 21 73 31 110 20 69 24 118 11 118 -14 0 -79
-74 -98 -110 -9 -19 -25 -60 -35 -90 l-18 -55 0 131 c-1 121 1 132 20 150 30
27 59 88 59 124 0 28 -2 30 -40 30 l-40 0 0 171 c0 142 3 176 17 199 15 27 15
30 0 54 -15 22 -17 66 -17 382 l0 358 73 71 c85 85 175 185 200 226 11 16 23
29 28 29 5 0 9 5 9 11 0 6 6 16 13 24 6 7 26 36 42 64 17 28 33 51 38 51 4 0
7 9 7 20 0 11 4 20 9 20 10 0 30 31 53 83 7 15 16 27 20 27 4 0 10 20 14 45 3
25 10 48 15 51 5 3 9 20 9 37 0 40 -26 59 -72 52 -32 -5 -32 -5 -8 7 14 7 34
21 45 30 52 44 65 54 84 68 25 18 29 68 5 77 -9 3 -35 23 -57 45 -22 21 -44
38 -49 38 -5 0 -19 9 -31 20 -12 11 -43 39 -68 63 -26 23 -69 61 -95 83 -68
58 -124 113 -124 123 0 4 -11 14 -25 21 -14 7 -25 16 -25 20 0 3 -22 31 -50
61 -27 29 -50 58 -50 63 0 5 -11 19 -25 32 -14 13 -25 27 -25 31 0 5 -11 20
-25 35 -14 15 -25 32 -25 38 0 5 -4 10 -9 10 -5 0 -13 10 -17 23 -4 12 -9 24
-13 27 -9 7 -30 42 -41 68 -5 12 -17 25 -25 28 -8 4 -15 14 -15 23 0 9 -7 29
-15 45 -18 35 -19 72 -2 91 87 102 87 102 87 120 0 8 4 15 9 15 5 0 12 11 15
25 4 14 11 25 16 25 6 0 10 7 10 15 0 8 4 15 9 15 5 0 12 17 16 37 4 21 15 55
26 77 10 22 22 61 25 88 4 26 10 48 15 48 5 0 9 16 9 35 0 19 4 35 9 35 4 0
11 21 15 47 6 49 22 105 37 135 5 10 9 37 9 60 0 24 7 74 15 113 8 38 15 105
15 147 0 45 4 78 10 78 6 0 10 67 10 180 0 102 -4 180 -9 180 -5 0 -12 28 -15
63 -8 95 -27 230 -36 252 -18 46 -40 129 -40 151 0 13 -4 24 -9 24 -5 0 -11
12 -14 28 -8 40 -31 116 -37 122 -10 10 -30 50 -30 61 0 12 -23 68 -46 111 -8
14 -14 33 -14 42 0 9 -4 16 -10 16 -5 0 -10 6 -10 14 0 7 -7 19 -15 26 -8 7
-15 21 -15 31 0 11 -4 19 -8 19 -4 0 -21 23 -37 50 -16 28 -32 50 -36 50 -4 0
-10 11 -13 25 -4 14 -11 25 -16 25 -6 0 -10 7 -10 15 0 8 -4 15 -9 15 -5 0
-14 12 -19 28 -6 15 -24 42 -41 61 -17 18 -31 38 -31 42 0 15 -130 140 -156
150 -32 11 -128 12 -152 0 -9 -4 -41 -20 -69 -35 -29 -14 -58 -26 -63 -26 -6
0 -23 -11 -38 -25 -15 -14 -30 -25 -34 -25 -4 0 -18 -10 -31 -22 -14 -13 -39
-34 -57 -48 -17 -14 -45 -37 -61 -52 -16 -16 -33 -28 -37 -28 -4 0 -16 -11
-26 -25 -10 -14 -23 -25 -27 -25 -11 0 -48 -31 -100 -82 -20 -21 -40 -38 -44
-38 -4 0 -24 -17 -45 -37 -70 -68 -84 -76 -92 -51 -3 8 -9 4 -17 -9 -10 -19
-9 -22 4 -17 25 10 17 -10 -17 -36 -28 -22 -80 -70 -178 -165 -19 -18 -60 -60
-91 -94 -45 -47 -59 -57 -69 -48 -10 10 -12 8 -7 -5 5 -13 -17 -41 -81 -105
-48 -49 -100 -105 -115 -125 -15 -21 -35 -38 -43 -38 -7 0 -13 -4 -12 -8 5
-16 -34 -64 -154 -189 l-49 -52 -341 0 c-246 0 -343 -4 -349 -12 -9 -15 -169
147 -259 261 -14 18 -49 56 -78 86 -28 30 -50 54 -47 54 3 0 -16 19 -41 43
-43 39 -99 96 -217 217 -26 28 -50 50 -53 50 -4 0 -29 23 -58 50 -72 70 -159
150 -196 180 -17 14 -56 49 -87 78 -31 28 -60 52 -64 52 -9 0 -61 45 -120 103
-21 20 -42 37 -48 37 -5 0 -22 12 -39 28 -62 57 -105 89 -134 98 -10 4 -18 10
-18 14 0 5 -13 11 -30 15 -16 4 -30 11 -30 16 0 5 -8 9 -17 9 -45 0 49 57 265
160 500 238 892 377 1227 434 373 64 861 62 1235 -4 860 -154 1599 -677 2085
-1477 43 -70 80 -130 81 -132 2 -1 18 8 36 21 106 78 239 127 370 135 l89 6
35 -34 c86 -82 140 -231 205 -561 24 -120 46 -218 51 -218 4 0 9 177 10 393
l3 392 17 -70 c24 -100 37 -255 38 -469 2 -199 6 -214 47 -153 36 54 53 134
68 327 18 227 31 276 92 341 66 71 129 99 221 99 215 0 550 -206 644 -397 27
-55 32 -77 32 -132 -1 -82 -19 -126 -81 -192 -69 -74 -135 -116 -362 -229
-111 -55 -201 -104 -201 -109 0 -12 129 25 460 133 342 112 370 119 260 62
-81 -41 -150 -70 -522 -216 -87 -34 -158 -66 -158 -72 0 -7 36 -9 103 -6 84 4
130 13 262 52 253 75 368 72 451 -11 20 -19 37 -33 40 -30 13 12 -123 492
-202 714 -192 540 -390 943 -659 1342 -138 205 -187 262 -305 358 -58 46 -133
112 -168 146 -66 65 -122 160 -122 209 0 24 -4 28 -29 28 -40 0 -95 21 -176
69 -42 25 -88 43 -117 47 -46 6 -48 8 -58 48 -19 77 -31 91 -76 89 -75 -4 -94
-6 -94 -12 0 -3 38 -42 85 -86 83 -80 100 -105 70 -105 -30 0 -208 62 -317
111 -185 82 -289 156 -349 248 -13 20 -18 22 -36 12 -52 -27 -99 -12 -284 92
-42 24 -86 40 -118 44 -60 7 -69 -8 -20 -35 78 -43 377 -244 494 -332 181
-136 327 -264 491 -431 228 -234 360 -411 541 -730 14 -25 -17 2 -90 78 -127
131 -344 332 -504 465 -840 702 -1832 1141 -2805 1243 -181 19 -566 26 -753
15z m770 -261 c235 -20 421 -66 819 -204 248 -86 467 -155 490 -155 8 0 53
-11 101 -25 203 -59 613 -332 870 -579 l90 -86 -90 53 c-49 30 -198 121 -330
204 -385 240 -600 355 -843 452 -225 90 -398 130 -641 151 -197 16 -277 40
-379 113 l-43 31 -108 -12 c-72 -8 -118 -9 -134 -3 -25 10 -47 38 -47 60 0 14
89 14 245 0z m-1582 -274 c-72 -31 -93 -89 -52 -146 30 -42 61 -38 149 21 78
52 100 59 119 37 18 -22 -66 -61 -245 -112 -199 -57 -269 -90 -328 -156 -25
-28 -46 -57 -46 -63 0 -24 106 1 209 48 56 26 121 49 146 53 l44 6 -9 -31 c-4
-17 -16 -42 -24 -54 -9 -12 -16 -42 -16 -67 l0 -44 108 6 c88 4 124 11 207 40
55 20 146 52 203 72 73 26 126 38 180 41 l77 5 -85 -26 c-226 -69 -396 -153
-806 -396 -247 -146 -420 -222 -584 -256 -65 -13 -88 -25 -173 -85 -266 -189
-532 -439 -731 -688 -177 -223 -434 -617 -545 -838 -78 -154 -93 -216 -101
-412 -7 -190 -15 -220 -69 -282 -17 -20 -31 -38 -31 -42 0 -11 74 24 97 45 39
37 65 117 71 214 5 85 7 92 50 158 55 85 99 186 187 427 37 102 86 226 110
276 46 99 138 242 161 251 8 3 25 -4 38 -16 32 -30 42 -27 61 22 43 107 158
249 304 376 52 45 58 48 53 26 -2 -14 -8 -25 -12 -25 -5 0 -12 -10 -16 -22 -4
-13 -9 -25 -13 -28 -6 -5 -25 -43 -55 -112 -9 -20 -16 -45 -16 -57 0 -12 -4
-21 -10 -21 -5 0 -10 -11 -10 -25 0 -14 -4 -25 -9 -25 -5 0 -12 -18 -16 -40
-4 -22 -11 -40 -16 -40 -5 0 -9 -11 -9 -24 0 -14 -4 -27 -9 -30 -5 -3 -12 -31
-16 -61 -3 -30 -11 -55 -16 -55 -5 0 -9 -13 -9 -29 0 -17 -4 -33 -10 -36 -5
-3 -10 -27 -10 -53 0 -26 -7 -74 -15 -107 -8 -33 -14 -81 -15 -107 0 -26 -4
-50 -10 -53 -6 -4 -10 -73 -10 -175 0 -102 4 -171 10 -175 6 -3 10 -39 10 -80
0 -41 4 -85 10 -99 5 -14 12 -60 15 -103 4 -43 10 -87 15 -98 13 -29 40 -148
40 -173 0 -11 5 -24 10 -27 6 -3 10 -19 10 -36 0 -16 4 -29 10 -29 5 0 12 -27
16 -60 4 -33 10 -60 14 -60 6 0 18 -32 35 -97 4 -13 11 -23 16 -23 5 0 9 -9 9
-20 0 -11 5 -20 10 -20 6 0 10 -9 10 -20 0 -11 7 -23 15 -26 8 -4 15 -15 15
-25 0 -10 4 -19 9 -19 5 0 12 -12 15 -26 4 -14 22 -40 41 -57 30 -28 35 -38
34 -77 0 -25 -3 -39 -6 -32 -10 25 -24 11 -18 -18 6 -29 -19 -90 -37 -90 -4 0
-8 -6 -8 -14 0 -8 -6 -21 -13 -28 -6 -7 -21 -30 -32 -50 -11 -21 -23 -38 -27
-38 -5 0 -8 -5 -8 -11 0 -7 -15 -30 -33 -53 -18 -23 -40 -53 -49 -67 -27 -43
-86 -101 -96 -95 -6 3 -15 -1 -22 -9 -11 -13 -10 -14 6 -9 18 7 -45 -70 -73
-89 -7 -4 -13 -15 -13 -22 0 -8 -5 -15 -10 -15 -6 0 -23 -12 -39 -27 -16 -16
-55 -50 -87 -78 -31 -27 -75 -67 -98 -88 -22 -20 -45 -37 -50 -37 -5 0 -23
-15 -40 -34 -18 -18 -42 -38 -54 -45 -30 -16 -30 -62 0 -81 12 -8 32 -24 43
-35 12 -11 38 -29 58 -39 21 -11 37 -23 37 -28 0 -13 -38 -9 -42 4 -3 9 -9 8
-21 -4 -18 -17 -25 -108 -8 -108 5 0 11 -18 15 -41 4 -22 18 -57 31 -77 14
-20 25 -42 25 -49 0 -7 4 -13 8 -13 4 0 16 -15 27 -32 10 -18 22 -35 25 -38 4
-3 20 -25 35 -50 16 -24 34 -51 42 -58 16 -16 17 -33 2 -29 -6 1 -14 -4 -17
-12 -3 -10 2 -12 21 -7 22 5 30 1 44 -21 9 -16 36 -47 60 -70 24 -24 43 -45
43 -48 0 -3 -20 -5 -45 -5 l-45 0 -2 -391 -3 -390 -90 67 c-49 37 -112 88
-140 113 -31 29 -102 73 -187 116 l-138 70 0 42 c0 39 2 43 33 51 17 5 31 15
29 21 -1 8 8 11 25 9 41 -4 142 12 149 23 7 13 -57 111 -186 284 -138 186
-211 298 -264 402 -63 126 -86 215 -93 353 -5 103 -8 117 -29 136 -69 65 -102
224 -80 389 9 68 20 59 31 -25 13 -110 36 -236 51 -285 26 -81 107 -191 91
-123 -3 13 -17 73 -31 133 -30 130 -50 294 -66 530 -21 329 -41 570 -51 608
-12 45 -34 48 -78 11 -17 -14 -39 -24 -48 -22 -23 4 -31 48 -8 48 9 0 34 9 56
21 34 17 40 24 35 42 -30 105 -26 252 10 389 21 84 83 215 122 259 36 42 39
51 16 70 -12 10 -15 25 -11 57 4 34 24 73 95 177 82 122 112 180 126 245 5 23
9 25 48 22 90 -7 157 82 193 256 10 48 19 89 21 91 2 2 11 -2 19 -9 20 -16 27
-8 50 55 49 140 129 246 376 502 109 112 209 224 227 256 41 69 81 164 82 194
0 20 -3 21 -27 12 -15 -5 -52 -37 -83 -70 -30 -32 -61 -59 -68 -59 -27 0 -8
33 66 112 44 46 84 93 90 105 19 34 14 78 -9 99 l-21 19 7 -42 c8 -50 -2 -55
-50 -23 -45 30 -77 25 -132 -19 -71 -57 -138 -130 -249 -271 -111 -142 -183
-214 -246 -249 -51 -28 -59 -40 112 154 166 188 490 510 623 620 327 271 621
453 920 570 155 61 472 149 360 100z m-812 -1774 c-12 -22 -21 -44 -21 -48 1
-4 12 12 25 37 28 53 29 50 45 -85 22 -190 165 -569 281 -743 29 -42 111 -137
182 -211 l130 -133 -201 -202 c-138 -139 -224 -234 -277 -308 -42 -60 -82
-109 -88 -109 -7 -1 -39 -1 -72 1 -92 3 -245 76 -245 118 0 11 8 13 36 8 33
-7 35 -6 25 13 -6 11 -26 30 -43 42 -120 84 -247 253 -293 390 l-25 73 30 -29
c16 -16 33 -26 36 -23 3 4 -1 31 -10 61 -9 30 -16 77 -16 104 0 61 72 424 95
478 10 22 22 51 27 65 9 24 10 24 23 7 12 -17 14 -13 24 35 7 29 20 63 30 76
l17 24 13 -42 c7 -24 16 -39 21 -34 5 5 30 68 56 139 61 171 116 280 167 333
36 37 42 40 45 23 2 -11 -6 -38 -17 -60z m4013 -31 c55 -90 73 -131 97 -218
16 -59 29 -132 30 -162 1 -30 4 -66 8 -80 6 -23 8 -22 36 25 17 28 35 64 41
80 l11 30 20 -40 c12 -22 27 -59 34 -83 10 -36 14 -40 22 -26 14 24 52 -105
73 -242 15 -100 14 -103 -11 -214 -14 -62 -23 -115 -21 -117 2 -2 24 17 50 44
l46 48 0 -57 c0 -31 -4 -68 -10 -82 -10 -29 6 -36 28 -14 28 28 10 -55 -33
-147 -52 -111 -134 -208 -250 -297 l-70 -53 48 -10 c46 -10 47 -11 32 -32 -8
-12 -41 -34 -73 -48 -59 -28 -227 -78 -242 -73 -4 2 -54 64 -110 138 -67 88
-164 197 -281 314 -99 98 -179 181 -179 186 0 4 45 47 101 96 81 71 116 112
178 204 151 227 291 594 324 853 7 52 16 87 22 87 7 0 42 -50 79 -110z m-2029
-1589 c6 -34 15 -65 21 -69 6 -4 14 -32 18 -62 5 -44 3 -62 -12 -90 -24 -44
-51 -49 -82 -15 -22 23 -25 36 -24 98 0 76 39 210 59 204 5 -2 15 -32 20 -66z
m257 -268 c29 -26 58 -52 65 -58 6 -7 31 -50 54 -96 42 -82 43 -86 47 -202 5
-120 -3 -156 -36 -182 -7 -6 -16 -30 -19 -53 -3 -23 -10 -42 -14 -42 -5 0 -9
-4 -9 -10 0 -18 -107 -120 -126 -120 -11 0 -27 -9 -37 -20 -9 -11 -23 -20 -32
-20 -9 0 -12 -6 -9 -15 4 -8 2 -15 -4 -15 -8 0 -26 -42 -19 -46 1 -1 -6 -11
-16 -21 -12 -14 -19 -43 -22 -94 -7 -95 -22 -191 -37 -226 -13 -33 -29 -540
-23 -723 3 -74 1 -119 -4 -110 -14 24 -34 269 -26 333 4 40 3 57 -4 52 -7 -4
-12 21 -13 77 -4 178 -15 314 -28 339 -9 15 -16 54 -51 269 -5 36 -13 72 -16
80 -3 8 -6 18 -5 22 1 3 -14 20 -33 36 -18 17 -31 33 -28 36 4 3 -8 9 -25 12
-18 4 -30 10 -27 14 5 9 -18 20 -42 20 -17 0 -64 45 -56 53 2 3 -5 8 -16 12
-12 3 -21 10 -21 15 0 5 -13 22 -30 38 -29 29 -51 77 -72 157 -23 86 -7 257
27 295 8 9 15 23 15 31 0 32 71 126 88 115 5 -3 15 1 22 9 8 9 8 15 2 15 -6 0
-13 -6 -15 -12 -4 -9 -6 -9 -6 -1 -1 13 46 53 63 53 6 0 4 -5 -4 -10 -8 -5
-11 -10 -7 -10 5 0 -7 -22 -27 -49 -41 -58 -62 -126 -70 -229 -5 -64 -4 -77
14 -102 11 -15 20 -33 20 -38 0 -14 72 -135 92 -155 9 -10 26 -17 36 -17 30 0
52 -11 52 -25 0 -24 186 -30 288 -9 13 2 20 9 17 14 -3 6 4 10 17 10 14 0 36
14 55 35 18 19 39 35 48 35 8 0 15 6 15 14 0 8 13 25 28 38 25 21 29 33 41
133 15 126 13 157 -11 203 -15 26 -16 37 -7 55 7 12 8 19 4 15 -11 -10 -45 10
-45 26 0 8 -21 32 -47 55 -27 22 -43 40 -36 41 7 0 36 -21 65 -47z m1629
-1270 c-32 -43 -130 -148 -218 -234 l-158 -157 -75 -7 c-41 -4 -181 -27 -310
-51 -129 -24 -235 -42 -236 -41 -6 5 147 188 209 249 105 105 94 101 747 292
47 13 89 25 93 25 4 1 -19 -34 -52 -76z m-3656 -19 c345 -73 491 -123 621
-211 57 -38 253 -285 222 -278 -62 13 -442 78 -508 86 -41 5 -84 11 -95 14
-30 7 -200 166 -301 280 -48 55 -97 110 -108 123 -11 12 -16 22 -11 22 5 0 86
-16 180 -36z m-3785 -569 c38 -137 81 -283 95 -324 14 -41 23 -76 21 -78 -9
-9 -87 114 -116 183 -58 139 -121 441 -119 569 l1 50 25 -75 c13 -41 55 -187
93 -325z m87 -840 l20 -50 -54 -130 -53 -130 0 275 0 275 34 -95 c18 -52 42
-117 53 -145z m3383 15 c0 -5 6 -10 14 -10 7 0 27 -7 42 -15 16 -8 37 -15 47
-15 9 0 17 -3 17 -8 0 -7 72 -42 88 -42 4 0 31 -12 60 -26 l52 -26 0 -509 c0
-280 -2 -509 -4 -509 -2 0 -19 7 -38 15 -34 13 -36 13 -59 -11 -28 -30 -91
-48 -141 -40 -24 4 -51 1 -73 -8 -34 -15 -35 -15 -35 10 0 24 0 24 105 24
l105 0 0 325 0 325 -105 0 -105 0 0 265 c0 229 2 265 15 265 8 0 15 -4 15 -10z
m-1094 -252 c71 -52 200 -112 272 -128 l62 -13 0 -63 0 -64 -280 0 -280 0 0
237 0 237 88 -85 c48 -47 110 -101 138 -121z m2704 -553 l0 -565 -280 0 -280
0 0 560 0 559 83 4 c45 1 171 4 280 5 l197 2 0 -565z m4275 537 c45 -28 93
-79 115 -123 11 -21 20 -41 20 -44 0 -3 -54 -5 -120 -5 l-120 0 0 95 0 95 38
0 c20 0 51 -8 67 -18z m212 -22 c65 -11 136 -20 158 -20 65 0 85 -9 85 -37 l0
-26 -102 6 c-113 5 -169 22 -231 67 -23 16 -38 30 -35 30 4 0 60 -9 125 -20z
m-1064 -210 c15 0 17 -13 17 -134 l0 -134 -31 -11 c-103 -36 -189 26 -189 137
0 45 4 57 33 88 34 37 99 67 132 59 11 -3 28 -5 38 -5z m-5793 -702 c0 -19
-10 -37 -32 -55 -18 -16 -50 -44 -72 -64 -27 -24 -53 -38 -78 -41 l-38 -4 23
24 c12 13 34 31 50 40 40 24 33 38 -30 55 -164 46 -429 50 -836 11 -51 -5 -78
-14 -110 -35 -23 -16 -53 -29 -67 -29 -25 0 -25 0 5 20 35 23 122 54 220 76
66 16 448 29 853 29 l112 0 0 -27z m1080 -223 l0 -135 -44 0 c-35 0 -48 5 -60
22 -21 30 -21 116 0 148 23 34 86 100 96 100 4 0 8 -61 8 -135z m-1962 10 c16
-36 15 -81 -3 -99 -20 -20 -19 -26 5 -26 19 0 20 -7 20 -165 0 -91 -2 -165 -4
-165 -3 0 -26 18 -51 40 -25 22 -55 40 -65 40 -11 0 -35 -14 -54 -30 l-34 -31
-37 34 c-36 33 -37 36 -26 69 13 39 8 61 -25 100 -30 36 -38 80 -24 123 10 30
16 35 43 35 18 0 47 -9 65 -20 51 -31 62 -12 37 66 -5 18 0 24 32 37 21 9 54
16 74 16 29 1 38 -4 47 -24z m6318 -1490 c-108 -100 -316 -221 -514 -299 -78
-31 -351 -116 -371 -116 -13 0 119 75 229 130 63 31 198 94 300 139 102 45
232 106 290 136 58 30 107 54 110 54 3 0 -17 -20 -44 -44z"/>
<path d="M6650 10297 c-73 -30 -210 -124 -210 -144 0 -15 92 2 140 27 50 26
140 107 140 126 0 18 -5 18 -70 -9z"/>
<path d="M6290 10069 c-284 -153 -519 -360 -940 -829 -57 -63 -111 -120 -119
-127 -9 -6 -13 -14 -9 -18 8 -8 100 46 190 112 125 92 248 203 533 483 159
157 327 314 373 349 74 57 96 81 75 81 -5 0 -51 -23 -103 -51z"/>
<path d="M12263 10053 c-24 -9 -13 -24 31 -42 52 -23 58 -35 43 -91 -12 -42
-11 -43 23 -71 22 -19 46 -29 67 -29 29 0 33 3 33 28 -1 62 -69 165 -132 198
-28 14 -44 16 -65 7z"/>
<path d="M5370 9675 c0 -15 -32 -23 -110 -27 -41 -3 -47 -6 -67 -44 -31 -55
-42 -123 -32 -181 10 -54 21 -64 58 -53 130 37 222 187 181 294 -10 28 -30 35
-30 11z"/>
<path d="M13549 7456 c-82 -33 -122 -61 -173 -117 -52 -58 -76 -121 -76 -198
0 -91 7 -104 47 -98 59 10 156 61 205 109 58 57 88 115 95 184 6 58 -12 144
-31 144 -6 0 -36 -11 -67 -24z"/>
<path d="M12588 7403 c-6 -16 -11 -55 -11 -88 -1 -136 111 -278 236 -300 39
-8 127 11 127 26 0 29 -55 174 -85 224 -67 111 -137 164 -218 165 -32 0 -39
-4 -49 -27z"/>
<path d="M13113 7040 c-66 -14 -124 -49 -186 -114 -141 -146 -143 -270 -6
-421 65 -70 117 -95 200 -95 85 0 166 38 232 109 132 142 136 322 10 443 -66
64 -165 95 -250 78z m120 -121 c35 -9 42 -17 69 -77 41 -89 48 -183 19 -229
-26 -41 -83 -78 -142 -94 -118 -31 -219 78 -219 236 0 68 34 134 80 157 40 20
134 24 193 7z"/>
<path d="M13577 6716 c-21 -8 -48 -22 -60 -32 -12 -11 -23 -20 -25 -20 -11 -6
44 -87 83 -123 86 -79 199 -114 296 -91 57 14 119 61 119 92 0 29 -97 120
-164 153 -70 34 -187 44 -249 21z"/>
<path d="M12673 6642 c-9 -6 -9 -31 3 -112 9 -58 18 -107 20 -109 7 -8 76 52
95 83 11 19 19 49 19 78 0 46 -1 47 -37 57 -45 13 -83 14 -100 3z"/>
<path d="M14515 6558 c-3 -18 -10 -64 -15 -103 -27 -176 -68 -300 -128 -382
-36 -48 -137 -103 -206 -110 -120 -14 -211 43 -439 276 -86 89 -162 161 -167
161 -19 0 -9 -28 40 -109 52 -88 112 -165 250 -326 47 -55 108 -129 135 -165
l50 -65 -50 41 c-89 74 -268 265 -385 412 -63 78 -118 142 -122 142 -13 0 -10
-23 13 -95 13 -44 45 -103 94 -175 109 -160 130 -207 150 -332 l6 -36 112 -36
c140 -44 157 -59 157 -142 0 -112 -39 -221 -130 -363 -29 -45 -50 -84 -47 -87
20 -20 145 126 228 266 67 113 79 99 18 -21 -32 -64 -145 -218 -165 -226 -21
-8 -17 -23 6 -23 48 0 107 51 188 160 44 60 74 85 139 119 78 39 135 22 211
-64 65 -74 132 -236 132 -319 0 -28 14 -35 23 -12 3 8 13 73 22 146 24 187 16
756 -13 975 -29 217 -84 525 -93 525 -5 0 -11 -15 -14 -32z"/>
<path d="M13140 6352 c-29 -29 -53 -95 -65 -175 -6 -41 -5 -45 29 -70 37 -29
80 -94 91 -138 5 -19 0 -34 -20 -57 -26 -31 -26 -32 -6 -32 66 0 130 59 151
140 24 88 -5 231 -65 321 -32 50 -72 53 -115 11z"/>
<path d="M12790 6313 c-64 -53 -79 -72 -80 -95 0 -11 -5 -15 -14 -12 -7 3 -16
-3 -19 -13 -4 -10 -12 -25 -18 -34 -10 -13 -10 -33 0 -90 l14 -73 21 26 c39
49 79 119 122 219 62 139 60 144 -26 72z"/>
<path d="M12908 6292 c-57 -86 -113 -228 -132 -335 -10 -52 3 -43 65 50 76
112 112 194 113 260 1 33 -4 58 -10 60 -6 2 -22 -14 -36 -35z"/>
<path d="M12703 5740 c14 -69 29 -306 25 -414 -3 -106 2 -137 15 -103 19 44
-11 -207 -44 -383 -31 -164 -87 -372 -141 -524 -26 -77 -47 -144 -45 -149 7
-23 159 118 369 343 98 105 114 126 100 134 -38 21 -91 88 -108 138 -12 34
-18 81 -18 133 1 153 67 284 168 331 93 43 165 24 268 -71 56 -52 118 -93 118
-79 0 4 -18 26 -40 50 -22 24 -58 81 -80 127 -23 48 -31 72 -19 57 95 -118
131 -157 174 -194 75 -62 85 -69 91 -64 10 11 -179 408 -194 408 -5 0 -6 -27
-4 -60 4 -60 0 -67 -33 -60 -5 1 -21 2 -35 2 -17 1 -33 13 -51 38 -25 35 -113
89 -126 77 -3 -4 -2 -18 1 -33 5 -19 20 -31 56 -47 45 -19 62 -39 43 -50 -5
-2 -53 0 -108 4 -259 22 -345 97 -345 298 0 74 -12 121 -31 121 -7 0 -9 -11
-6 -30z"/>
<path d="M13697 5332 c-56 -35 -86 -160 -57 -237 24 -63 104 -100 115 -52 20
91 25 119 25 172 0 58 -23 125 -46 132 -5 1 -22 -5 -37 -15z"/>
<path d="M14057 5000 c-75 -29 -117 -65 -117 -101 0 -62 110 -73 217 -23 36
18 73 66 73 95 0 49 -86 63 -173 29z"/>
<path d="M13745 4985 c-5 -2 -22 -6 -38 -9 -36 -8 -104 -70 -128 -117 -23 -46
-25 -138 -4 -179 18 -35 67 -73 117 -91 32 -11 42 -10 79 6 107 49 159 116
158 205 -1 81 -19 121 -69 151 -43 26 -94 41 -115 34z m55 -80 c65 -33 79
-122 30 -179 -24 -27 -104 -76 -125 -76 -2 0 -20 14 -40 31 -47 42 -61 94 -39
148 32 81 104 112 174 76z"/>
<path d="M13242 4961 c-46 -12 -49 -17 -28 -54 44 -76 103 -118 168 -116 44 0
122 33 126 51 4 22 -44 76 -89 98 -44 23 -130 33 -177 21z"/>
<path d="M13876 4627 c-19 -14 -19 -16 13 -88 63 -140 123 -201 185 -185 30 8
33 26 12 104 -18 67 -58 134 -92 157 -37 24 -94 30 -118 12z"/>
<path d="M13585 4599 c-124 -68 -175 -163 -136 -257 9 -22 19 -31 28 -28 35
14 125 81 144 108 30 41 36 106 14 152 -19 39 -21 40 -50 25z"/>
<path d="M14778 3235 l-3 -895 -26 -26 c-27 -27 -82 -43 -151 -44 l-38 0 0
-360 0 -360 198 0 c224 0 273 8 392 67 104 52 231 179 283 283 70 143 67 83
67 1212 l0 1018 -360 0 -360 0 -2 -895z"/>
<path d="M10433 1500 c-41 -30 -121 -135 -111 -146 12 -11 198 70 198 86 0 8
-11 32 -24 52 l-23 38 -40 -30z"/>
</g>
</svg>
